<?xml version="1.0" encoding="utf-8"?>
<!-- Generator: Adobe Illustrator 21.0.0, SVG Export Plug-In . SVG Version: 6.00 Build 0)  -->
<svg version="1.1" id="Layer_1" xmlns="http://www.w3.org/2000/svg" xmlns:xlink="http://www.w3.org/1999/xlink" x="0px" y="0px"
	 viewBox="0 0 117.2 223.1" style="enable-background:new 0 0 117.2 223.1;" xml:space="preserve">
<style type="text/css">
	.st0{fill:#F1F6ED;}
</style>
<g>
	<path class="st0" d="M58.6,223.1C26.3,223.1,0,196.9,0,164.5V58.6C0,26.3,26.3,0,58.6,0s58.6,26.3,58.6,58.6v105.9
		C117.2,196.9,90.9,223.1,58.6,223.1z M58.6,16.6c-23.2,0-42,18.9-42,42v105.9c0,23.2,18.9,42,42,42s42-18.9,42-42V58.6
		C100.6,35.4,81.8,16.6,58.6,16.6z"/>
	<path class="st0" d="M58.6,119.9c-4.6,0-8.3-3.7-8.3-8.3V44.7c0-4.6,3.7-8.3,8.3-8.3s8.3,3.7,8.3,8.3v66.9
		C66.9,116.1,63.2,119.9,58.6,119.9z"/>
</g>
</svg>
