<?xml version="1.0" encoding="utf-8"?>
<!-- Generator: Adobe Illustrator 21.0.0, SVG Export Plug-In . SVG Version: 6.00 Build 0)  -->
<svg version="1.1" id="Layer_1" xmlns="http://www.w3.org/2000/svg" xmlns:xlink="http://www.w3.org/1999/xlink" x="0px" y="0px"
	 viewBox="0 0 595.3 268.5" style="enable-background:new 0 0 595.3 268.5;" xml:space="preserve">
<style type="text/css">
	.st0{fill:#FFFFFF;}
</style>
<title>villa_oceane_logo</title>
<g>
	<path class="st0" d="M121.2,83.6c3.9-1.6,8-2.9,12.1-3.8c5.8-1.4,9.3-3.2,10.4-5.4c0.4-0.8,0.6-1.8,0.6-2.7c0-1.4-1.3-2.1-3.9-2.1
		l-3.4,0.5c-3,0.6-5.8,1.7-8.4,3.2c-3.4,1.8-6,3.2-7.9,4.3c-1.2,0.9-2.6,1.7-3.9,2.4c-2.3,1.3-3.4,2.6-3.4,4c0,1.1,0.8,1.6,2.3,1.6
		C116.3,85.7,118.2,85,121.2,83.6z"/>
	<path class="st0" d="M225.7,42.4c-3,1-5.3,3.2-7.8,5.1c-2.1,1.7-4.5,3-7,4c-3.1,1.2-6.2,2.4-9.3,3.6c-6.3,2.5-12.5,5-18.7,7.7
		c-13.4,5.9-54.1,44.9-54.1,44.9c-8.6,8.9-15.3,15.2-20,18.8c-4.7,3.6-9.1,5.4-13.2,5.4c-4.9,0-7.3-1.8-7.3-5.4
		c0-3.9,2.3-7.9,7-11.8c5.1-4.1,10.9-7.2,17.2-9.1c0.4-1.3,0.1-2.7-0.8-3.8c-0.9-1.1-2.3-1.7-3.7-1.6c-3,0-6.6,2-10.7,5.9
		c-12,11.4-18,21.1-18,28.9c-0.1,2.9,1,5.7,3.1,7.8c2,2,4.8,3,7.6,2.9c9.4,0,20.1-7.5,32.1-22.5c11.1-13.4,23.2-26,36.3-37.5
		c-9.4,12.5-12.5,19.5-12.5,31c0,6.4,1.6,11.2,4.8,14.2c3.3,3.1,7.6,4.7,12.1,4.6c6.8,0,12.6-3.4,18-7.1c5.6-3.9,10.8-8.4,15.5-13.3
		c4.1-4.3,8.3-8.6,12.7-12.6c2.8-2.6,5.8-5,9.1-7c-8.3,10.4-12.4,20.2-12.4,29.5c-0.1,4,1.4,7.9,4.2,10.7c2.8,2.9,6.8,4.3,12.1,4.3
		c7.9,0,16.3-5,25.3-15c-0.7,1.9-1.1,3.9-1.1,5.9c0.1,3.7,1.7,7.2,4.5,9.6c3,2.9,7.5,4.3,13.5,4.3c5,0.1,10-0.9,14.6-2.9
		c4.5-2.2,8.6-5,12.3-8.4c4.9-3.9,8.8-5.9,11.8-5.9c4.1,0,11.1,2,20.8,5.9c16.6,7.5,34.4,12.6,52.8,10.9c5.3-0.5,25.4-5.4,30.2-7.4
		c11.4-4.8,17.2-11.2,17.2-19c0-2.8-1.1-5.5-3.1-7.5c-2.1-2.2-5.1-3.3-8.1-3.2c-1.9,0.1-3.7,0.5-5.4,1.3c-1.7,0.7-3.2,1.9-4.2,3.5
		c1.2,0.9,2.3,1.9,3.1,3.2c1.3,1.7,2,3.8,2,5.9c0,5.3-4.5,9.8-13.5,13.4c-8.6,3.5-17.7,5.3-27,5.4c-11.3,0-25.5-4.6-42.8-13.9
		c-4.1-2.1-8.2-4-12.1-5.6c-3.1-1.4-6.4-2.2-9.8-2.4c-2.6,0.1-5.1,0.9-7.3,2.4c-2.5,1.5-5,3.2-7.3,5.1c-8.6,6.8-15.9,10.2-21.9,10.2
		c-3.3,0.1-6.5-0.7-9.3-2.4c-2.4-1.6-3.8-4.3-3.7-7.2c0-9.1,8.4-16.8,17.4-17c2,0,4.4,0.6,4.9,2.6s-1.3,3.7-0.9,5.6s2.7,2.7,4.5,2.1
		c2.2-0.7,6.2-3.6,6.8-5.9c1-3.3-1.8-4.3-4.1-5.5c-3.1-1.5-6.5-2.3-10-2.2c-7.1,0-13.5,2.7-19.1,8c-1.1,1.1-3.2,2.9-6.2,5.6
		c-2.8,2.6-5.8,4.9-9,7c-3,2-6.5,3-10.1,2.9c-6.8,0-10.1-3.4-10.1-10.2c0-18.1,15.4-33.2,29.7-41.8c15.7-9.5,34.2-13.6,52.5-11.5
		c5,0.6,18,2.5,19-5.4c0.9-7.1-12.2-4.1-16.3-3.7c-13.8,1.2-27.4,4.2-40.5,8.8c-25,8.8-49.4,24.3-67,44c-3.6,3.8-7.8,7-12.5,9.3
		c-3.4,1.8-7.2,2.8-11,3.1c-3.9,0.2-7.6-1.1-10.6-3.6c-1.7-1.5-2.8-3.4-3.4-5.6c-0.5-2.1,0-3.8,0.2-5.9c0.4-4,1.3-7.8,2.8-11.5
		c2.2-5.7,5.5-10.9,9.7-15.3c8.3-8.8,18.6-15.4,30.1-19.4c2.8-1,5.8-1.8,8.7-2.4c5.8-1.2,11.8-1.7,17.4-3.5c2.2-0.5,4.2-1.6,5.8-3.1
		c1.7-1.6,2.3-3.9,1.6-6.1C232.5,42.4,228.7,41.5,225.7,42.4z"/>
	<path class="st0" d="M586.3,212.5c-2.5,0.1-5,0.7-7.3,1.9c-2.1,0.9-4.1,2.3-5.6,4c1.1,2.4,1.7,4.9,1.7,7.5
		c0,9.3-6.1,16.7-18.3,22.2c-12.7,5.6-26.4,8.5-40.2,8.3c-7.5,0-14.9-1.1-22-3.4c-7.1-2.3-12.4-5.4-15.8-9.4
		c6.5-3,12.3-7.2,17.2-12.3c4.7-5,7-10,7-15c0.2-3.5-1.2-6.9-3.7-9.4c-2.4-2.3-5.7-3.5-9.8-3.5c-5.9,0-11.6,2.5-15.5,7
		c-4.3,4.7-6.5,10.9-6.5,18.8c0,5.3,1.3,9.8,3.9,13.4c-1.7,0.4-3.4,0.6-5.1,0.5c-7.9,0-11.8-3.9-11.8-11.8l0.6-5.4
		c0.7-3.5,1.1-7,1.2-10.5c0-4.2-0.5-9.1-4.4-11.6s-10.9,0.8-14.8,2.9c-11.1,6-16.3,19.5-24,28.9c-0.7,1-1.6,1.8-2.6,2.4
		c-1,0.7-2.3,0.7-3.4,0.2c-2.8-1.5,0.2-7.5,0.9-9.7c1-3.7,2.4-7.4,4.2-10.8c1-1.7,2.1-2.7,0-3.9s-6.4-0.1-8.5,0.2
		c-0.8,0.1-1.6,0.3-2.4,0.7c-0.8,0.4-1.3,1.2-1.3,2c0,1.7,2.1,2.7,1.9,4.4c-0.1,1.1-1.9,2.1-2.6,3c-2.4,3-4.9,5.9-7.6,8.7
		c-2.8,2.9-6.1,5.2-9.7,6.7c-1.3,0.5-2.8,0.8-3.8-0.4c-0.6-0.7-0.9-5.4-0.9-6.3c-0.1-1.2,0.1-2.4,0.5-3.5c0.3-0.8,1-1.5,1.2-2.3
		c0.4-1.7-1.1-3.5-2.6-4.1c-1.8-0.6-3.8-0.5-5.5,0.5c-7.6,4-8.2,14.6-16.9,17.2c-4.8,1.4-10-0.1-13.2-3.9
		c-6.6-8.2,1.5-18.5,8.4-23.1c1.6-1.1,3.4-2.1,5.4-2.1c3.2,0.1,3.5,2.7,4.3,5.1c0.7,2.2,3.3,3.3,5.5,3c2.2-0.5,4.3-1.6,5.8-3.3
		c2-1.9,3.8-4.5,3.6-7.3c-0.3-3.8-4-6.3-7.6-7.3c-12.4-3.1-22.5,7-30,15.3c-6,6.6-6.5,9.1-12.7,15.6c-4,4.2-11,8.1-16.7,9.2
		c-6,1.2-15.6-1.5-18.2-6.7c5.5-2.4,23.6-11.8,23-24.4c-0.4-8.4-5-10-11.6-10c-7.9,0.4-15.1,6.7-18.6,13.5c-1.6,3.1-2.7,6.4-3,9.9
		c-0.1,3.7,0.6,7.4,2.1,10.9c-9.6,5.9-44.2,16.7-44.2-10.5c-0.4-8.8,7.9-16.7,16.1-18.1c1.7-0.3,4.3,0,5.5,1.5c1,1.2,0.7,3,2,4.1
		s3.6,0.6,5.4-0.1c2.6-1,5.3-2.1,7-4.2c1.5-1.9,2.2-5.1,0.5-7.1s-5.2-3-7.8-3.3c-10.6-1.1-19.7,4.7-28.8,9.2
		c-3.2,1.6-6.9,3.9-10.5,3.7s-7.4,0.4-10.7-1.5c-3-1.7-3.6-6.2-3.6-9.3c0-8.2-2.5-14.5-7.6-18.8c-5.1-4.3-11.7-6.4-20-6.4
		c-9.4,0-21.8,2.3-27.1,11c-2,3.1-2.6,6.8-1.7,10.3c1.1,3.4,4.5,6.2,8.1,5.9c3.4-0.3,6-3,7.7-5.9s2.8-6.2,4.7-8.9
		c6.4-8.8,18.2-7.8,25.5-0.9c3.2,3,4.8,7.4,4.8,13.1c0,9.6-3,19.3-9,28.9c-6,9.6-14.2,17.7-23.9,23.6c-9.5,5.9-20.5,9.1-31.8,9.1
		c-9.4,0.1-18.5-3.2-25.6-9.4c-7.3-6.2-11-15.6-11-28.1c0-9.6,3-19,9-28.1c6.3-9.4,14.8-17,24.8-22.2c6.3-3.3,13-5.6,20-6.8
		c6.1-1.1,12.8-2.4,18.9-2c13.6,0.8,26.4,6.5,39.2,10.4c9.8,3.1,20,5.1,30.3,6c15.8,1.2,32.2-1,46.3-8.3c3-1.6,6.5-4.4,6.3-8.2
		c-0.1-2.4-2.7-4.2-5-4.2c-2.8,0-5,3.4-7,5.3c-1.9,1.9-3.9,3.7-6.2,5.3c-5,3.3-11.8,4.6-17.6,5h-0.4c-14.2,0.9-28.4-0.8-42-4.9
		c-5.2-1.6-10.4-3.5-15.5-5.3c-31.6-11.1-68.8-8.6-96.3,11.7c-16.7,12.3-25,28.3-25,48c0,12.9,4.5,23.3,13.5,31.3
		c9,8,22.3,12.1,39.9,12.1c16.9,0,32.1-5.5,45.6-16.6c9.4-7.6,16.9-17.3,21.8-28.4c1.5-3.5,2.7-7,3.6-10.7c0.3-1.1,0.6-1.2,1.5-0.4
		c0.8,0.8,1.7,1.5,2.8,2c2.1,1,4.3,1.6,6.6,1.6c3.6-0.1,7.2-0.8,10.6-2.1c-2.9,0.9-4.6,7.5-4.9,10c-1,8,3.1,15.6,9.4,19.3
		s21.3,7.8,47.4-5c4.4,7,12.1,8.6,17.4,8.6c10,0,17.3-3.8,28.2-14c0.4,2.3,2.6,7.4,3.7,8.4c4,3.8,9.4,5.7,14.8,5.4
		c6.9-0.3,14.4-2.9,19.3-7.9c1.2-1.2,2.7-3.8,4.8-3.2c1.3,0.4,1.6,6,2.3,7.2c0.9,1.5,2.5,2.5,4.3,2.8c6.4,1.2,12.3-3.4,16.9-7.3
		c0.9-0.8,3.4-4,4.4-3.1s-0.3,3.6-0.6,4.6c-0.7,1.7-1.9,3.8-0.5,5.5c0.8,0.8,1.8,1.4,2.9,1.6c3.7,0.9,7.7-0.4,10.8-2.5
		s5.6-5.1,8.1-8.1l8.9-10.8c2.1-2.6,4.4-5.3,7.4-6.9c2.3-1.2,7-3.4,9.1-1.1c1.9,2.1,1.3,6.3,1.6,8.9c0.6,5.3,0.5,11.9,4,16.2
		c3.1,3.7,8.1,4.7,12.7,4.7c3.9,0.1,7.7-0.7,11.3-2.1c4.1,5,10.3,8.8,18.6,11.3c8.8,2.6,17.9,3.8,27,3.8c11.8-0.1,23.5-2.2,34.6-6.2
		c11.8-4.1,21.7-9.3,29.5-15.5c7.9-6.3,11.9-12.5,12-18.6C595.3,215,592.3,212.5,586.3,212.5z M288.5,216.7
		c3.9-5.7,13.1-7.4,13.5,0.4c0.4,7.9-12.6,14.5-14.4,15.3C284.3,223.6,287,219.1,288.5,216.7z M474.3,232.3
		c-0.1-3.6,1.1-7.1,3.4-9.9c2.3-2.7,4.7-4,7.3-4c3.4,0,5.1,1.8,5.1,5.4c0,2.9-1.3,5.9-3.9,9.1c-2.6,3.2-5.9,5.7-9.6,7.5
		C475.1,238.6,474.3,235.9,474.3,232.3L474.3,232.3z"/>
	<path class="st0" d="M120,52c13.1-9.3,25.3-15.9,36.3-19.6c11.1-3.7,21.2-5.8,30.4-6.2c9.2-0.4,15.5-0.7,18.9-1.1
		c5.8-0.6,11.2-2.8,15.8-6.4c4.5-3.6,6.7-7.5,6.7-11.8c0-4.7-2.4-7-7.3-7c-3.8,0-5.8,1.3-6.2,3.8c-1.9,8.6-10.1,13.8-24.8,15.5
		c-22.1,2.5-43.8,10.6-65.2,24.4c-21.4,13.8-49.3,47.4-65.5,67.8l-7.3,9.6c-0.8,1.1-2,2.7-3.7,4.8c-1.7,2.1-3.1,3.8-4.2,5.1
		c-0.8,1.1-2,1.8-3.4,1.9c-1.9,0-2.8-2.5-2.8-7.5v-23c0-16.4-6.4-24.6-19.1-24.6c-3.8,0-7.5,0.8-11,2.4C4,81.7,1.5,83.6,0,85.7
		c0,5.7,2.8,8.6,8.4,8.6c2.3,0,4.8-1,7.6-2.9c2.8-2,5-2.9,6.5-2.9c2.2,0,4.2,1.2,5.9,3.5c1.7,2.3,2.5,5.8,2.5,10.4
		c0,5.7-1.3,13.3-3.9,22.8c-2.2,8.1-4.8,16-7.9,23.8c-1.3,2.8-2.1,5.9-2.3,9.1c0,7.1,2.8,10.7,8.4,10.7c1.7,0,3.4-0.5,4.8-1.6
		c1.6-1.4,3-3,4.2-4.8c1.5-2.1,2.4-3.6,2.8-4.3c3-3.9,8.6-12.5,16.9-25.7c10.1-15.3,18.8-27.6,26.2-36.7
		C87.5,86.5,106.9,60.9,120,52z"/>
	<path class="st0" d="M189.6,174c-1.3-0.7-2.3-1.8-3-3.1c-0.7-1.4-0.3-3.1,0.9-4c0.8-0.5,2.1-0.7,2.4-1.6c0.3-1.2-1.2-1.9-2.4-2.1
		c-4.2-0.7-8.4-1-12.6-0.9c-4.1,0.2-8.2,0.7-12.3,1.4c-0.6,0.1-1.8,0.4-1.4,1.2c0.3,0.6,1.5,0.7,2,0.7c1.8,0,3.6-0.3,5.4-0.4
		c1.8-0.2,3.7,0,5.4,0.8c1.7,0.8,2.8,2.4,2.9,4.3c0,2-1.6,3.6-3.3,4.6s-3.6,1.6-5.3,2.6c2.5,0.3,5,0.4,7.5,0.4
		c2.4,0,4.8-0.4,7.2-0.1c4.9,0.5,9.7,1.5,14.4,2.9l2.4,0.7c0.3,0.1,2.4,0.5,2.5,0.8c-0.9-3.1-1.4-3.4-4.4-4.3
		C194.9,177,192.1,175.7,189.6,174z"/>
	<path class="st0" d="M311,191.8c0.1,0.2,0.2,0.3,0.3,0.4c1.6,2.2,4.9,2.4,7.4,1.4s4.5-3.1,6.5-4.9c12.6-11.1,29.7-12.6,45.8-11.7
		c6.6,0.4,13.2,1.2,19.8,2.5c60.1,11.1,82.1-9.2,90.6-26.5s-14.1-17.9-14.4-9.8c-0.7,15.7-12,43.6-72.7,32.3
		c-12.9-2.4-26.1-4.3-39.3-4.3c-7.5,0-15.2,0.4-22.5,2.5c-6.7,1.9-13.6,3.8-18.8,8.7c-1.4,1.2-2.5,2.8-3.2,4.5
		C310.1,188.6,310.2,190.3,311,191.8z"/>
</g>
</svg>
